<svg xmlns="http://www.w3.org/2000/svg" viewBox="0 0 100 100" width="100" height="100">
  <defs>
    <linearGradient id="leafGrad" x1="0%" y1="0%" x2="100%" y2="100%">
      <stop offset="0%" style="stop-color:#3a7d44"/>
      <stop offset="50%" style="stop-color:#4a8f3f"/>
      <stop offset="100%" style="stop-color:#b89a3e"/>
    </linearGradient>
  </defs>
  <!-- Central leaf/lotus shape approximating the Bhavya logo -->
  <path d="M50 10 C55 25, 65 35, 70 50 C65 40, 55 35, 50 30 C45 35, 35 40, 30 50 C35 35, 45 25, 50 10Z" fill="url(#leafGrad)" opacity="0.9"/>
  <path d="M50 20 C53 30, 58 38, 62 48 C58 40, 53 36, 50 32 C47 36, 42 40, 38 48 C42 38, 47 30, 50 20Z" fill="url(#leafGrad)" opacity="0.7"/>
  <path d="M30 55 C35 52, 42 50, 50 52 C42 54, 35 56, 25 62 C28 58, 30 55, 30 55Z" fill="url(#leafGrad)" opacity="0.8"/>
  <path d="M70 55 C65 52, 58 50, 50 52 C58 54, 65 56, 75 62 C72 58, 70 55, 70 55Z" fill="url(#leafGrad)" opacity="0.8"/>
</svg>
